<svg height="512pt" viewBox="0 0 512 512" width="512pt" xmlns="http://www.w3.org/2000/svg"><path d="m115.285156 512h-34.285156v-81h-81v-34.339844l121.769531-120.660156h114.230469v115.285156zm-52.742187-121h58.457031v58.714844l75-75v-58.714844h-57.769531zm409.457031-351h40v-40h-40zm-432-40h-40v40h40zm432 512h40v-40h-40zm-432-40h-40v40h40zm196-196h40v-40h-40zm0-196h40v-40h-40zm40-40h40v-40h-40zm-80 0h40v-40h-40zm40 432h40v-40h-40zm40 40h40v-40h-40zm-80 0h40v-40h-40zm-116-236v-40h-40v40zm-40-40v-40h-40v40zm0 80v-40h-40v40zm432-40v-40h-40v40zm40-40v-40h-40v40zm0 80v-40h-40v40zm-81 196h-34.285156l-120.714844-120.714844v-115.285156h114.230469l121.769531 120.660156v34.339844h-81zm-115-137.285156 75 75v-58.714844h58.457031l-75.6875-75h-57.769531zm-80-138.714844h-114.230469l-121.769531-120.660156v-34.339844h81v-81h34.285156l120.714844 120.714844zm-97.769531-40h57.769531v-58.714844l-75-75v58.714844h-58.457031zm252 40h-114.230469v-115.285156l120.714844-120.714844h34.285156v81h81v34.339844zm-74.230469-40h57.769531l75.6875-75h-58.457031v-58.714844l-75 75zm0 0"/></svg>