<?xml version="1.0" encoding="UTF-8" standalone="no"?>
<!DOCTYPE svg PUBLIC "-//W3C//DTD SVG 1.1//EN" "http://www.w3.org/Graphics/SVG/1.1/DTD/svg11.dtd">
<svg version="1.1" xmlns="http://www.w3.org/2000/svg" xmlns:xlink="http://www.w3.org/1999/xlink" preserveAspectRatio="xMidYMid meet" viewBox="0 0 640 640" width="50" height="50"><defs><path d="M662.02 360.31C673.06 360.31 682 351.37 682 340.33C682 329.3 673.06 320.35 662.02 320.35C628.79 320.35 601.75 293.31 601.75 260.08C601.75 226.85 628.79 199.8 662.02 199.8C673.06 199.8 682 190.86 682 179.82C682 168.79 673.06 159.84 662.02 159.84C629.23 159.84 600.06 175.67 581.76 200.09C563.46 175.67 534.3 159.84 501.51 159.84C468.72 159.84 439.55 175.67 421.25 200.09C402.96 175.67 373.79 159.84 341 159.84C308.21 159.84 279.04 175.67 260.75 200.09C242.45 175.67 213.28 159.84 180.49 159.84C147.7 159.84 118.54 175.67 100.24 200.09C81.94 175.67 52.77 159.84 19.98 159.84C8.94 159.84 0 168.79 0 179.82C0 190.86 8.94 199.8 19.98 199.8C53.21 199.8 80.25 226.85 80.25 260.08C80.25 293.31 53.21 320.35 19.98 320.35C8.94 320.35 0 329.3 0 340.33C0 351.37 8.94 360.31 19.98 360.31C53.21 360.31 80.25 387.36 80.25 420.59C80.25 453.82 53.21 480.86 19.98 480.86C8.94 480.86 0 489.81 0 500.84C0 511.88 8.94 520.82 19.98 520.82C52.77 520.82 81.94 505 100.24 480.58C118.54 505 147.7 520.82 180.49 520.82C213.28 520.82 242.45 505 260.75 480.58C279.04 505 308.21 520.82 341 520.82C373.79 520.82 402.96 505 421.25 480.58C439.55 505 468.72 520.82 501.51 520.82C534.3 520.82 563.46 505 581.76 480.58C600.06 505 629.23 520.82 662.02 520.82C673.06 520.82 682 511.88 682 500.84C682 489.81 673.06 480.86 662.02 480.86C628.79 480.86 601.75 453.82 601.75 420.59C601.75 387.36 628.79 360.31 662.02 360.31ZM441.24 420.59C441.24 387.36 468.28 360.31 501.51 360.31C534.74 360.31 561.78 387.36 561.78 420.59C561.78 453.82 534.74 480.86 501.51 480.86C468.28 480.86 441.24 453.82 441.24 420.59ZM280.73 420.59C280.73 387.36 307.77 360.31 341 360.31C374.23 360.31 401.27 387.36 401.27 420.59C401.27 453.82 374.23 480.86 341 480.86C307.77 480.86 280.73 453.82 280.73 420.59ZM120.22 420.59C120.22 387.36 147.26 360.31 180.49 360.31C213.72 360.31 240.76 387.36 240.76 420.59C240.76 453.82 213.72 480.86 180.49 480.86C147.26 480.86 120.22 453.82 120.22 420.59ZM100.24 320.07C105.99 327.75 112.82 334.58 120.5 340.33C112.82 346.09 105.99 352.92 100.24 360.6C94.48 352.92 87.65 346.09 79.97 340.33C87.65 334.58 94.48 327.75 100.24 320.07ZM240.76 260.08C240.76 293.31 213.72 320.35 180.49 320.35C147.26 320.35 120.22 293.31 120.22 260.08C120.22 226.85 147.26 199.8 180.49 199.8C213.72 199.8 240.76 226.85 240.76 260.08ZM401.27 260.08C401.27 293.31 374.23 320.35 341 320.35C307.77 320.35 280.73 293.31 280.73 260.08C280.73 226.85 307.77 199.8 341 199.8C374.23 199.8 401.27 226.85 401.27 260.08ZM561.78 260.08C561.78 293.31 534.74 320.35 501.51 320.35C468.28 320.35 441.24 293.31 441.24 260.08C441.24 226.85 468.28 199.8 501.51 199.8C534.74 199.8 561.78 226.85 561.78 260.08ZM581.76 360.6C576.01 352.92 569.18 346.09 561.5 340.33C569.18 334.58 576.01 327.75 581.76 320.07C587.52 327.75 594.35 334.58 602.03 340.33C594.35 346.09 587.52 352.92 581.76 360.6ZM400.99 340.33C408.67 334.58 415.5 327.75 421.25 320.07C427.01 327.75 433.84 334.58 441.52 340.33C433.84 346.09 427.01 352.92 421.25 360.6C415.5 352.92 408.67 346.09 400.99 340.33ZM240.48 340.33C248.16 334.58 254.99 327.75 260.75 320.07C266.5 327.75 273.33 334.58 281.01 340.33C273.33 346.09 266.5 352.92 260.75 360.6C254.99 352.92 248.16 346.09 240.48 340.33Z" id="e2yWrr5Iyl"></path><path d="" id="a1rDtauxy5"></path></defs><g><g><g><use xlink:href="#e2yWrr5Iyl" opacity="1" fill="#000000" fill-opacity="1"></use><g><use xlink:href="#e2yWrr5Iyl" opacity="1" fill-opacity="0" stroke="#000000" stroke-width="1" stroke-opacity="0"></use></g></g><g><g><use xlink:href="#a1rDtauxy5" opacity="1" fill-opacity="0" stroke="#000000" stroke-width="1" stroke-opacity="1"></use></g></g></g></g></svg>